<svg width="121" height="48" viewBox="0 0 121 48" fill="none" xmlns="http://www.w3.org/2000/svg">
<g id="Logo" style="mix-blend-mode:luminosity">
<path id="Vector" d="M47.2397 12.9913V35.0764C46.7469 41.978 41.3123 47.4993 34.519 48H12.7806C5.6344 47.4587 0 41.3961 0 33.9938V14.0671C0 6.30617 6.20051 0 13.8462 0H33.4601C40.7462 0 46.7136 5.72428 47.2464 12.9845L47.2397 12.9913Z" fill="black"/>
<g id="Group">
<path id="Vector_2" d="M21.3854 37.8304L18.8013 36.3689C17.416 37.1538 17.9621 39.2987 19.5472 39.2987H20.6328C20.8926 39.2987 21.1523 39.231 21.3788 39.1025C21.8649 38.825 21.8649 38.1146 21.3788 37.8372L21.3854 37.8304Z" fill="white"/>
<path id="Vector_3" d="M19.0808 15.0684C19.7935 15.8397 20.9923 15.8397 21.7049 15.0684C22.3576 14.3647 22.3576 13.2618 21.7049 12.5581L18.6812 9.28998C18.3416 8.9246 17.8687 8.71484 17.3692 8.71484C15.7908 8.71484 14.9716 10.6297 16.0572 11.8003L19.0808 15.0684Z" fill="white"/>
<path id="Vector_4" d="M28.1454 19.5138C27.4328 18.7425 26.2273 18.7425 25.5147 19.5138C24.862 20.2175 24.862 21.3204 25.5147 22.0241L31.9083 28.9325L27.5393 31.4089C26.3072 32.1059 26.3072 33.9125 27.5393 34.6094C28.0854 34.9206 28.7514 34.9206 29.2976 34.6094L37.7026 29.8459L28.1387 19.5138H28.1454Z" fill="white"/>
<path id="Vector_5" d="M27.5391 35.8612L27.3193 35.7327L23.6163 33.6351L15.3113 28.9326L23.6163 19.9672L26.0872 17.2946L31.1688 11.8071C32.2544 10.6365 31.4352 8.72168 29.8568 8.72168C29.3573 8.72168 28.8844 8.93143 28.5448 9.29681L23.6163 14.6219L21.1388 17.2946L9.52368 29.846L19.92 35.7394L23.623 37.837L25.7875 39.0684C26.0539 39.2241 26.3603 39.2985 26.6667 39.2985C28.5248 39.2985 29.1708 36.7882 27.5458 35.868L27.5391 35.8612Z" fill="white"/>
</g>
<path id="Vector_6" d="M120.294 11.7868C120.514 11.9154 120.687 12.0913 120.814 12.3146C120.94 12.5379 121 12.7882 121 13.0589C121 13.3295 120.934 13.5799 120.807 13.8099C120.681 14.04 120.501 14.2159 120.281 14.3445C120.061 14.473 119.815 14.5407 119.542 14.5407C119.269 14.5407 119.029 14.473 118.809 14.3445C118.589 14.2159 118.416 14.0332 118.29 13.8099C118.163 13.5866 118.096 13.3363 118.096 13.0656C118.096 12.795 118.163 12.5446 118.29 12.3213C118.416 12.098 118.589 11.9154 118.816 11.7868C119.042 11.6582 119.282 11.5906 119.555 11.5906C119.828 11.5906 120.074 11.6515 120.294 11.78V11.7868ZM120.208 14.2159C120.407 14.0941 120.561 13.9385 120.674 13.7355C120.787 13.5325 120.847 13.3092 120.847 13.0656C120.847 12.822 120.794 12.5988 120.681 12.3958C120.567 12.1995 120.414 12.0372 120.214 11.9221C120.021 11.8071 119.795 11.7462 119.555 11.7462C119.315 11.7462 119.089 11.8071 118.889 11.9221C118.689 12.0372 118.536 12.1995 118.423 12.4025C118.31 12.6055 118.25 12.8288 118.25 13.0724C118.25 13.316 118.31 13.5393 118.423 13.7423C118.536 13.9452 118.689 14.1009 118.889 14.2227C119.089 14.3377 119.309 14.3986 119.548 14.3986C119.788 14.3986 120.008 14.3377 120.208 14.2227V14.2159ZM120.188 13.113C120.121 13.201 120.035 13.2686 119.915 13.3092L120.301 13.9114H120.081L119.721 13.3498C119.721 13.3498 119.668 13.3498 119.628 13.3498H119.202V13.9114H118.989V12.2198H119.628C119.828 12.2198 119.995 12.2672 120.108 12.3687C120.228 12.4702 120.288 12.6055 120.288 12.7814C120.288 12.91 120.254 13.0183 120.188 13.1062V13.113ZM119.955 13.0724C120.035 13.0047 120.074 12.91 120.074 12.7882C120.074 12.6664 120.035 12.5785 119.955 12.5108C119.875 12.4431 119.761 12.4161 119.615 12.4161H119.195V13.1739H119.615C119.761 13.1739 119.875 13.1401 119.955 13.0724Z" fill="url(#paint0_linear_963_2915)"/>
<path id="Vector_7" d="M66.9931 34.7785C66.9731 35.5634 66.3604 36.0709 65.761 36.1656C65.4546 36.2333 65.1416 36.2671 64.8286 36.2671C62.6973 36.2671 60.7726 34.6905 60.2531 32.5186C60.1532 32.1126 60.1332 31.6796 60.1132 31.26C60.1066 31.1044 60.0999 30.9488 60.0866 30.7999C60.0466 30.2857 60.0067 29.7376 59.9734 29.1219C59.9201 28.0596 59.8868 26.9567 59.8735 25.7455C59.8535 23.6074 59.8935 21.4422 59.9334 19.3446C59.9401 18.8507 59.9534 18.3635 59.9601 17.8696C59.9867 16.2389 59.9734 14.5812 59.9601 12.9843C59.9601 12.4701 59.9534 11.9558 59.9467 11.4484C59.9467 11.4281 59.9467 11.3942 59.9467 11.3604C59.9467 11.3266 59.9467 11.2928 59.9467 11.2589C60 10.3996 60.6993 9.72974 61.5452 9.72974C61.8249 9.72974 62.0913 9.80417 62.331 9.9395H62.5908V10.1222C62.9438 10.4267 63.1436 10.8732 63.1436 11.3536C63.1436 11.3672 63.1436 11.3875 63.1436 11.401C63.1436 11.4619 63.1436 11.5296 63.1436 11.5905C63.1569 17.6801 63.1569 23.7292 63.1436 29.5752C63.1036 31.0909 63.2901 31.957 63.7829 32.4644C64.1692 32.8704 64.7753 33.0666 65.6411 33.0666C65.6877 33.0666 65.8276 33.0666 65.8276 33.0666H65.8675C66.8799 33.3102 66.9997 34.0613 66.9798 34.7717L66.9931 34.7785ZM83.3835 17.4501C82.804 17.4501 82.3578 17.7343 82.158 18.2282C81.0524 20.6302 79.9669 23.0864 78.9146 25.4613C78.0887 27.3288 77.2362 29.2572 76.3771 31.1518C75.5246 29.5211 74.752 27.8092 74.0061 26.1447C73.4 24.805 72.7807 23.4179 72.1213 22.085C71.9148 21.6452 71.7084 21.1986 71.5086 20.7588C71.129 19.9333 70.736 19.0807 70.3364 18.2485C70.09 17.7275 69.6305 17.4298 69.071 17.4298C69.0044 17.4298 68.9378 17.4298 68.8779 17.4433C68.2851 17.5042 67.7856 17.8696 67.5459 18.4244C67.3194 18.9522 67.3794 19.5408 67.699 20.001C68.0853 20.8332 68.4849 21.6655 68.8779 22.4774C69.131 22.9984 69.384 23.5262 69.6371 24.0472C70.0634 24.9471 70.4896 25.847 70.9092 26.7469C71.3421 27.6672 71.775 28.5806 72.2079 29.5008C72.5742 30.2789 72.9472 31.0503 73.3201 31.8216C73.7797 32.7757 74.2326 33.723 74.6854 34.677C74.6988 34.7109 74.7054 34.792 74.6988 34.8123C74.1193 36.1588 73.5133 37.5189 72.9272 38.8315C72.4676 39.8668 71.9881 40.9426 71.5286 41.9914C71.3288 42.4244 71.3621 42.8777 71.6285 43.277C71.9482 43.7574 72.421 44.028 72.9139 44.028C73.4067 44.028 73.9129 43.7371 74.2459 43.2296C74.8852 42.2553 75.3315 41.1456 75.7577 40.0765C76.0574 39.3322 76.3638 38.5609 76.7301 37.8572L76.7434 37.8369C77.8157 35.3875 78.9479 32.9043 80.0468 30.509C81.7384 26.8078 83.4834 22.9849 85.0551 19.1755V19.1552L85.0685 19.1349C85.1617 18.8033 85.0884 18.4582 84.8686 18.1605C84.549 17.7343 83.9496 17.4433 83.3768 17.4433L83.3835 17.4501ZM116.884 18.3567C116.091 17.6192 115.025 17.2335 113.8 17.2335C111.928 17.2335 109.864 18.1402 108.538 19.4732C108.525 18.8642 108.425 18.2553 108.046 17.8628C107.786 17.5922 107.44 17.4568 107.007 17.4568C106.98 17.4568 106.907 17.4568 106.907 17.4568C105.908 17.4568 105.328 18.032 105.328 19.0334C105.302 24.169 105.308 29.3587 105.328 34.677C105.342 35.7732 106.154 36.2739 106.9 36.2739C107.373 36.2739 107.813 36.0844 108.119 35.7596C108.405 35.4416 108.545 35.0289 108.518 34.562C108.545 33.1681 108.532 31.7472 108.518 30.3804C108.505 28.3235 108.485 26.1921 108.598 24.1081C108.898 21.3677 111.615 20.3934 114.06 20.3934C114.519 20.3934 114.985 20.4272 115.432 20.4949H115.458C115.512 20.5017 115.558 20.5017 115.605 20.5017C116.218 20.5017 116.67 20.2039 116.957 19.622L116.997 19.5476V18.4785L116.884 18.3703V18.3567ZM100.32 33.2223C98.8348 33.229 97.3496 33.229 95.8644 33.229H91.229C92.6543 31.2533 94.1794 29.2978 95.6579 27.4033C96.6636 26.1109 97.7092 24.778 98.7082 23.4518C99.5474 22.3556 100.387 21.2595 101.219 20.1634C101.652 19.5882 101.745 18.8845 101.472 18.235C101.252 17.7072 100.76 17.4433 100.007 17.4433H97.6826C96.4305 17.4433 95.1718 17.4433 93.9197 17.4433C91.6686 17.4433 89.8304 17.4433 88.1521 17.4568C87.3196 17.4568 86.7934 17.6734 86.567 18.7357C86.487 19.1146 86.5803 19.5544 86.82 19.9062C87.0265 20.2107 87.3062 20.4137 87.6059 20.4678H87.6259H87.6459C88.7781 20.5355 90.0235 20.5693 91.5553 20.5693C92.3479 20.5693 93.1604 20.5626 93.9396 20.5558C94.7189 20.549 95.5247 20.5423 96.3173 20.5423C96.6103 20.5423 96.89 20.5423 97.1565 20.5423C96.0109 22.0714 94.8188 23.5803 93.6666 25.0486C92.581 26.4289 91.4621 27.8566 90.3832 29.2843C90.0568 29.7038 89.7305 30.1301 89.3975 30.5496C88.6449 31.5172 87.8723 32.5118 87.1197 33.5065C86.6269 34.156 86.5403 34.8462 86.8667 35.5025C87.2463 36.2603 87.9789 36.2603 88.4717 36.2603H90.7295H96.6103C97.8491 36.2603 99.0879 36.2603 100.327 36.2603C101.172 36.2536 101.759 35.6175 101.759 34.7244C101.759 33.7974 101.212 33.2223 100.333 33.2223H100.32Z" fill="black"/>
</g>
<defs>
<linearGradient id="paint0_linear_963_2915" x1="118.096" y1="13.0724" x2="121" y2="13.0724" gradientUnits="userSpaceOnUse">
<stop stop-color="#35C1D0"/>
<stop offset="1" stop-color="#755EA9"/>
</linearGradient>
</defs>
</svg>
